<svg xmlns="http://www.w3.org/2000/svg" width="250" height="100" fill="none" viewBox="0 0 174 58">
  <rect width="38" height="15" y="31" fill="#21C4BA" rx="2"/>
  <rect width="19" height="15" x="45" y="31" fill="#C9E2E1" rx="2"/>
  <rect width="47" height="15" x="9" y="15" fill="#A2BFBD" rx="2"/>
  <path fill="#7E635B" d="M49 41v-3.36h-.16c-1.347 2.56-3.467 3.84-6.36 3.84-2.52 0-4.5-.953-5.94-2.86-1.427-1.92-2.14-4.567-2.14-7.94 0-3.387.713-6.033 2.14-7.94 1.44-1.907 3.42-2.86 5.94-2.86 2.893 0 5.013 1.28 6.36 3.84H49V11.4h3.2V41H49Zm-5.28-2.36c1.427 0 2.66-.36 3.7-1.08 1.053-.733 1.58-1.787 1.58-3.16v-7.44c0-1.387-.527-2.44-1.58-3.16-1.04-.72-2.273-1.08-3.7-1.08-1.853 0-3.3.567-4.34 1.7-1.027 1.133-1.54 2.633-1.54 4.5v3.52c0 1.853.513 3.353 1.54 4.5 1.04 1.133 2.487 1.7 4.34 1.7Zm19.224 2.84c-1.973 0-3.686-.44-5.14-1.32-1.44-.893-2.56-2.147-3.36-3.76-.786-1.613-1.18-3.507-1.18-5.68 0-2.2.4-4.107 1.2-5.72.8-1.627 1.914-2.887 3.34-3.78 1.427-.893 3.074-1.34 4.94-1.34 1.854 0 3.467.433 4.84 1.3 1.374.867 2.434 2.06 3.18 3.58.76 1.52 1.14 3.253 1.14 5.2v1.52h-15.28v.96c0 1.813.567 3.313 1.7 4.5 1.147 1.187 2.687 1.78 4.62 1.78 1.387 0 2.587-.32 3.6-.96 1.014-.64 1.787-1.52 2.32-2.64l2.36 1.6c-.613 1.373-1.64 2.513-3.08 3.42-1.426.893-3.16 1.34-5.2 1.34Zm-.2-18.96c-1.173 0-2.22.273-3.14.82a5.96 5.96 0 0 0-2.18 2.24c-.533.947-.8 2.02-.8 3.22v.28h11.84v-.44c0-1.827-.526-3.3-1.58-4.42-1.053-1.133-2.433-1.7-4.14-1.7ZM81.53 41.48c-1.974 0-3.687-.44-5.14-1.32-1.44-.893-2.56-2.147-3.36-3.76-.787-1.613-1.18-3.507-1.18-5.68 0-2.2.4-4.107 1.2-5.72.8-1.627 1.913-2.887 3.34-3.78 1.426-.893 3.073-1.34 4.94-1.34 1.853 0 3.466.433 4.84 1.3 1.373.867 2.433 2.06 3.18 3.58.76 1.52 1.14 3.253 1.14 5.2v1.52H75.21v.96c0 1.813.566 3.313 1.7 4.5 1.146 1.187 2.686 1.78 4.62 1.78 1.386 0 2.586-.32 3.6-.96 1.013-.64 1.786-1.52 2.32-2.64l2.36 1.6c-.614 1.373-1.64 2.513-3.08 3.42-1.427.893-3.16 1.34-5.2 1.34Zm-.2-18.96c-1.174 0-2.22.273-3.14.82a5.96 5.96 0 0 0-2.18 2.24c-.534.947-.8 2.02-.8 3.22v.28h11.84v-.44c0-1.827-.527-3.3-1.58-4.42-1.054-1.133-2.434-1.7-4.14-1.7Zm20.984-4.8c2.6 0 3.56-1.24 3.56-2.8v-1.16c0-1.6-.96-2.8-3.56-2.8-2.64 0-3.56 1.2-3.56 2.8v1.16c0 1.56.92 2.8 3.56 2.8ZM91.433 49h7.56c4.24 0 6.28-2.48 6.28-5.96V20.36h-13.92v4.6h8V44.4h-7.92V49Zm26.905-7.52c6.44 0 10.36-4.12 10.36-10.8 0-6.68-3.92-10.8-10.36-10.8-6.44 0-10.36 4.12-10.36 10.8 0 6.68 3.92 10.8 10.36 10.8Zm0-4.4c-2.64 0-4.24-1.72-4.24-4.76v-3.28c0-3.04 1.6-4.76 4.24-4.76s4.24 1.72 4.24 4.76v3.28c0 3.04-1.6 4.76-4.24 4.76Zm19.424 4.4c4.6 0 7.4-2.04 8.88-5.04l-4.48-2.56c-.88 1.68-2.08 2.88-4.36 2.88-2.8 0-4.32-1.68-4.32-4.4V29c0-2.72 1.56-4.4 4.24-4.4 2.2 0 3.32 1.2 4.04 2.8l4.56-2.48c-1.44-3-4.08-5.04-8.6-5.04-6.44 0-10.4 4.12-10.4 10.8 0 6.68 3.92 10.8 10.44 10.8Zm8.344-.48h5.92v-7.16l1.96-1.96 6 9.12h7.04l-8.84-12.48 8-8.16h-6.8l-4.32 4.6-2.76 3.24h-.28V11.4h-5.92V41Z"/>
</svg>
